<svg xmlns="http://www.w3.org/2000/svg" viewBox="0 0 64 40.9"><style>.st0{fill:none;stroke:#000;stroke-miterlimit:10}.st1,.st2{fill:#fff}.st2{stroke:#fff;stroke-miterlimit:10}</style><path class="st0" d="M259 150.7l-8.2 8.2M258.6 150.6l-8.2 8.3M258.9 151l-8.2 8.2"/><path d="M55.3 36.6c0 2.4-1.9 4.3-4.3 4.3H4.3C1.9 40.9 0 39 0 36.6V9.9c0-2.4 1.9-4.3 4.3-4.3H51c2.4 0 4.3 1.9 4.3 4.3v26.7z"/><path class="st1" d="M35.6 30.7l3.8 5.4 5.5-7.4 7.4 10H30l5.6-8zM9.5 20.8h16.4V23H9.5v-2.2zm0-4h16.4V19H9.5v-2.2zm0 8.3h11.9v2.2H9.5v-2.2z"/><path class="st2" d="M1.4 23.3l2-1.2L5.3 21v4.5l-1.9-1.1zM53.9 23.2L52 24.3l-2 1.2V21l2 1.1z"/><path class="st2" d="M57.9 36.3H13.3c-3.3 0-6-2.7-6-6V5.9c0-3.3 2.7-6 6-6h44.6c3.3 0 6 2.7 6 6v24.4c0 3.3-2.7 6-6 6z"/><g><path d="M64 31c0 2.4-1.9 4.3-4.3 4.3H13c-2.4 0-4.3-1.9-4.3-4.3V4.3C8.7 1.9 10.6 0 13 0h46.7C62.1 0 64 1.9 64 4.3V31z"/><path class="st1" d="M44.3 25.1l3.8 5.4 5.5-7.4 7.4 10H38.7l5.6-8zm-26.1-9.9h16.4v2.2H18.2v-2.2zm0-4h16.4v2.2H18.2v-2.2zm0 8.3H30v2.2H18.2v-2.2z"/><path class="st2" d="M10.1 17.7l2-1.1 1.9-1.2v4.5l-1.9-1.1zM62.6 17.6l-1.9 1.2-2 1.1v-4.5l2 1.1z"/></g></svg>
